<svg width="20" height="20" viewBox="0 0 20 20" fill="none" xmlns="http://www.w3.org/2000/svg">
<path fill-rule="evenodd" clip-rule="evenodd" d="M4 9C4 7.67392 4.52679 6.40215 5.46447 5.46447C6.40215 4.52678 7.67392 4 9 4C10.3261 4 11.5979 4.52678 12.5355 5.46447C13.4732 6.40215 14 7.67392 14 9C14 10.3261 13.4732 11.5979 12.5355 12.5355C11.5979 13.4732 10.3261 14 9 14C7.67392 14 6.40215 13.4732 5.46447 12.5355C4.52679 11.5979 4 10.3261 4 9ZM9 2C7.89084 2 6.79755 2.26357 5.81024 2.769C4.82292 3.27442 3.96984 4.00723 3.32131 4.90703C2.67277 5.80683 2.24733 6.84786 2.08006 7.94434C1.91279 9.04082 2.00847 10.1613 2.35922 11.2136C2.70997 12.2658 3.30574 13.2197 4.09744 13.9965C4.88915 14.7733 5.85412 15.3509 6.91283 15.6816C7.97154 16.0123 9.09369 16.0867 10.1868 15.8987C11.2799 15.7106 12.3127 15.2655 13.2 14.6C13.2284 14.6378 13.2595 14.6736 13.293 14.707L16.293 17.707C16.4816 17.8892 16.7342 17.99 16.9964 17.9877C17.2586 17.9854 17.5094 17.8802 17.6948 17.6948C17.8802 17.5094 17.9854 17.2586 17.9877 16.9964C17.99 16.7342 17.8892 16.4816 17.707 16.293L14.707 13.293C14.6736 13.2595 14.6378 13.2284 14.6 13.2C15.38 12.16 15.855 10.9234 15.9717 9.62864C16.0885 8.33391 15.8424 7.03225 15.261 5.8695C14.6796 4.70676 13.786 3.72889 12.6801 3.04544C11.5743 2.362 10.3 2 9 2Z" fill="#72716A"/>
</svg>
